<svg width="200" height="80" viewBox="0 0 200 80" xmlns="http://www.w3.org/2000/svg">
  <!-- Padel Racket made of yellow dots -->
  <g id="racket">
    <!-- Racket head - dots forming oval shape -->
    <circle cx="40" cy="25" r="3" fill="#FFD700" stroke="#FFA500" stroke-width="0.5"/>
    <circle cx="45" cy="20" r="3" fill="#FFD700" stroke="#FFA500" stroke-width="0.5"/>
    <circle cx="50" cy="18" r="3" fill="#FFD700" stroke="#FFA500" stroke-width="0.5"/>
    <circle cx="55" cy="20" r="3" fill="#FFD700" stroke="#FFA500" stroke-width="0.5"/>
    <circle cx="60" cy="25" r="3" fill="#FFD700" stroke="#FFA500" stroke-width="0.5"/>
    <circle cx="65" cy="30" r="3" fill="#FFD700" stroke="#FFA500" stroke-width="0.5"/>
    <circle cx="65" cy="35" r="3" fill="#FFD700" stroke="#FFA500" stroke-width="0.5"/>
    <circle cx="60" cy="40" r="3" fill="#FFD700" stroke="#FFA500" stroke-width="0.5"/>
    <circle cx="55" cy="42" r="3" fill="#FFD700" stroke="#FFA500" stroke-width="0.5"/>
    <circle cx="50" cy="40" r="3" fill="#FFD700" stroke="#FFA500" stroke-width="0.5"/>
    <circle cx="45" cy="35" r="3" fill="#FFD700" stroke="#FFA500" stroke-width="0.5"/>
    <circle cx="40" cy="30" r="3" fill="#FFD700" stroke="#FFA500" stroke-width="0.5"/>
    
    <!-- Additional dots for racket head -->
    <circle cx="47" cy="22" r="2.5" fill="#FFD700" stroke="#FFA500" stroke-width="0.5"/>
    <circle cx="52" cy="19" r="2.5" fill="#FFD700" stroke="#FFA500" stroke-width="0.5"/>
    <circle cx="57" cy="22" r="2.5" fill="#FFD700" stroke="#FFA500" stroke-width="0.5"/>
    <circle cx="62" cy="27" r="2.5" fill="#FFD700" stroke="#FFA500" stroke-width="0.5"/>
    <circle cx="62" cy="32" r="2.5" fill="#FFD700" stroke="#FFA500" stroke-width="0.5"/>
    <circle cx="57" cy="37" r="2.5" fill="#FFD700" stroke="#FFA500" stroke-width="0.5"/>
    <circle cx="52" cy="38" r="2.5" fill="#FFD700" stroke="#FFA500" stroke-width="0.5"/>
    <circle cx="47" cy="32" r="2.5" fill="#FFD700" stroke="#FFA500" stroke-width="0.5"/>
    
    <!-- Racket handle - dots forming handle shape -->
    <circle cx="35" cy="45" r="2" fill="#FFD700" stroke="#FFA500" stroke-width="0.5"/>
    <circle cx="32" cy="50" r="2" fill="#FFD700" stroke="#FFA500" stroke-width="0.5"/>
    <circle cx="30" cy="55" r="2" fill="#FFD700" stroke="#FFA500" stroke-width="0.5"/>
    <circle cx="28" cy="60" r="2" fill="#FFD700" stroke="#FFA500" stroke-width="0.5"/>
    <circle cx="26" cy="65" r="2" fill="#FFD700" stroke="#FFA500" stroke-width="0.5"/>
    <circle cx="24" cy="70" r="2" fill="#FFD700" stroke="#FFA500" stroke-width="0.5"/>
    
    <!-- Handle grip dots -->
    <circle cx="33" cy="47" r="1.5" fill="#FFD700" stroke="#FFA500" stroke-width="0.5"/>
    <circle cx="31" cy="52" r="1.5" fill="#FFD700" stroke="#FFA500" stroke-width="0.5"/>
    <circle cx="29" cy="57" r="1.5" fill="#FFD700" stroke="#FFA500" stroke-width="0.5"/>
    <circle cx="27" cy="62" r="1.5" fill="#FFD700" stroke="#FFA500" stroke-width="0.5"/>
    <circle cx="25" cy="67" r="1.5" fill="#FFD700" stroke="#FFA500" stroke-width="0.5"/>
  </g>
  
  <!-- Padel Ball -->
  <g id="ball">
    <!-- Main ball circle -->
    <circle cx="120" cy="40" r="15" fill="#FFFFFF" stroke="#333333" stroke-width="2"/>
    
    <!-- Ball texture lines -->
    <path d="M 105 40 Q 112.5 35 120 40 Q 127.5 45 135 40" stroke="#333333" stroke-width="1" fill="none"/>
    <path d="M 105 40 Q 112.5 45 120 40 Q 127.5 35 135 40" stroke="#333333" stroke-width="1" fill="none"/>
    
    <!-- Ball shadow/highlight -->
    <circle cx="118" cy="38" r="3" fill="#F0F0F0" opacity="0.8"/>
    
    <!-- Ball bounce effect -->
    <ellipse cx="120" cy="58" rx="8" ry="2" fill="#E0E0E0" opacity="0.6"/>
  </g>
  
  <!-- Optional: Add some connecting lines to make it more cohesive -->
  <path d="M 70 30 Q 85 35 100 40" stroke="#FFD700" stroke-width="1" fill="none" opacity="0.3"/>
  <path d="M 70 35 Q 85 40 100 40" stroke="#FFD700" stroke-width="1" fill="none" opacity="0.3"/>
</svg> 